<?xml version="1.0" encoding="UTF-8"?>
<svg width="144.38mm" height="280.23mm" version="1.1" viewBox="0 0 144.38 280.23" xmlns="http://www.w3.org/2000/svg"><defs><clipPath><path d="m0 0.028h611.97v1440h-611.97z" clip-rule="evenodd"/></clipPath><clipPath id="clipPath3505"><path d="m0 1411.7h611.95v28.3h-611.95z" clip-rule="evenodd"/></clipPath></defs><g transform="translate(-26.604 -13.039)"><rect x="-.23208" y="-6.0925" width="233.97" height="328.84" ry="4.5436" fill="#fff" stroke="#fff" stroke-width="1.252"/><g transform="matrix(.35278 0 0 -.35278 -56.929 445.69)"></g><g transform="matrix(.35278 0 0 -.35278 -56.929 445.69)"><g clip-path="url(#clipPath3505)"></g></g><g transform="translate(83.533 65.39)"><path d="m-56.929-46.88h144.38v-5.4702h-144.38z" fill="#87d1d1" fill-rule="evenodd"/><g transform="matrix(.35278 0 0 -.35278 -56.929 445.69)"><text transform="matrix(1 0 0 -1 2.098 1400.8)" fill="#000000" font-family="'Liberation Mono'" font-size="11.991px"><tspan x="0 7.1946001 14.3892 21.583799 28.7784 35.973" y="0">Symbol</tspan></text></g><g transform="matrix(.35278 0 0 -.35278 -56.929 445.69)"><text transform="matrix(1 0 0 -1 84.104 1400.8)" fill="#000000" font-family="'Liberation Mono'" font-size="11.991px"><tspan x="0 7.1946001 14.3892 21.583799 28.7784 35.973 43.167599 50.362202 57.556801 64.751404 71.945999" y="0">Description</tspan></text></g><g transform="matrix(.35278 0 0 -.35278 -56.929 445.69)"><text transform="matrix(1 0 0 -1 286.61 1400.8)" fill="#000000" font-family="'Liberation Mono'" font-size="11.991px"><tspan x="0 7.1946001 14.3892 21.583799 28.7784" y="0">Usage</tspan></text></g><g transform="matrix(.35278 0 0 -.35278 -56.929 445.69)"><text transform="matrix(1 0 0 -1 .992 1386.2)" fill="#24292e" font-family="FreeMono" font-size="10.998px"><tspan x="0" y="0">⁜</tspan></text></g><g transform="matrix(.35278 0 0 -.35278 -56.929 445.69)"><text transform="matrix(1 0 0 -1 48.501 1385.7)" fill="#000000" font-family="Tahoma" font-size="10.998px"><tspan x="0 6.5988002 12.581712 18.685602 23.579712 27.264042 31.256315 37.360207 42.452278 46.136608 49.534992 55.638882 61.126884 70.321213 76.414101 82.397018" y="0">Construct Symbol</tspan></text></g><g transform="matrix(.35278 0 0 -.35278 -56.929 445.69)"><text transform="matrix(1 0 0 -1 200.89 1386.2)" fill="#24292e" font-family="FreeMono" font-size="10.998px"><tspan x="0 6.5988002" y="0">⁜⁜</tspan></text></g><g transform="matrix(.35278 0 0 -.35278 -56.929 445.69)"><text transform="matrix(1 0 0 -1 .992 1372.4)" fill="#24292e" font-family="'Segoe UI Symbol'" font-size="10.998px"><tspan x="0" y="0">⏴</tspan></text></g><g transform="matrix(.35278 0 0 -.35278 -56.929 445.69)"><text transform="matrix(1 0 0 -1 48.501 1371.9)" fill="#000000" font-family="Tahoma" font-size="10.998px"><tspan x="0 7.7865839 13.879476 19.664425" y="0">Open</tspan></text></g><g transform="matrix(.35278 0 0 -.35278 -56.929 445.69)" fill="#24292e" font-size="10.998px"><text transform="matrix(1 0 0 -1 200.89 1372.4)" font-family="FreeMono"><tspan x="0" y="0">⁜</tspan></text><text transform="matrix(1 0 0 -1 207.5 1372.4)" font-family="'Segoe UI Symbol'"><tspan x="0" y="0">⏴</tspan></text></g><g transform="matrix(.35278 0 0 -.35278 -56.929 445.69)"><text transform="matrix(1 0 0 -1 .992 1358.6)" fill="#24292e" font-family="'Segoe UI Symbol'" font-size="10.998px"><tspan x="0" y="0">⏵</tspan></text></g><g transform="matrix(.35278 0 0 -.35278 -56.929 445.69)"><text transform="matrix(1 0 0 -1 48.501 1358.1)" fill="#000000" font-family="Tahoma" font-size="10.998px"><tspan x="0 6.5988002 9.0953465 15.078258 19.972368" y="0">Close</tspan></text></g><g transform="matrix(.35278 0 0 -.35278 -56.929 445.69)" fill="#24292e" font-size="10.998px"><text transform="matrix(1 0 0 -1 200.89 1358.6)" font-family="FreeMono"><tspan x="0" y="0">⁜</tspan></text><text transform="matrix(1 0 0 -1 207.5 1358.6)" font-family="'Segoe UI Symbol'"><tspan x="0" y="0">⏵</tspan></text></g><g transform="matrix(.35278 0 0 -.35278 -56.929 445.69)"><text transform="matrix(1 0 0 -1 .992 1341.7)" fill="#000000" font-family="'Segoe UI'" font-size="10.998px"><tspan x="0" y="0">→</tspan></text></g><g transform="matrix(.35278 0 0 -.35278 -56.929 445.69)"><text transform="matrix(1 0 0 -1 48.501 1341.2)" fill="#000000" font-family="Tahoma" font-size="10.998px"><tspan x="0 6.5878019 11.679876 16.77195 22.556898 28.660788 32.345119 35.7435 42.331303 46.323578 50.315849 56.298763" y="0">Accent Arrow</tspan></text></g><g transform="matrix(.35278 0 0 -.35278 -56.929 445.69)"><text transform="matrix(1 0 0 -1 .992 1324.7)" fill="#000000" font-family="'Segoe UI'" font-size="10.998px"><tspan x="0" y="0">ā</tspan></text></g><g transform="matrix(.35278 0 0 -.35278 -56.929 445.69)"><text transform="matrix(1 0 0 -1 48.501 1324.2)" fill="#000000" font-family="Tahoma" font-size="10.998px"><tspan x="0 6.5878019 11.679876 16.77195 22.556898 28.660788 32.345119 35.7435 42.232319 48.017269" y="0">Accent Bar</tspan></text></g><g transform="matrix(.35278 0 0 -.35278 -56.929 445.69)"><text transform="matrix(1 0 0 -1 .992 1307.7)" fill="#000000" font-family="'Segoe UI'" font-size="10.998px"><tspan x="0" y="0">ă</tspan></text></g><g transform="matrix(.35278 0 0 -.35278 -56.929 445.69)"><text transform="matrix(1 0 0 -1 48.501 1307.2)" fill="#000000" font-family="Tahoma" font-size="10.998px"><tspan x="0 6.5878019 11.679876 16.77195 22.556898 28.660788 32.345119 35.7435 42.232319 46.224594 52.009541 57.497543" y="0">Accent Breve</tspan></text></g><g transform="matrix(.35278 0 0 -.35278 -56.929 445.69)"><text transform="matrix(1 0 0 -1 .992 1290.7)" fill="#000000" font-family="'Segoe UI'" font-size="10.998px"><tspan x="0" y="0">ȧ</tspan></text></g><g transform="matrix(.35278 0 0 -.35278 -56.929 445.69)"><text transform="matrix(1 0 0 -1 48.501 1290.2)" fill="#000000" font-family="Tahoma" font-size="10.998px"><tspan x="0 6.5878019 11.679876 16.77195 22.556898 28.660788 32.345119 35.7435 43.233139 49.216049" y="0">Accent Dot</tspan></text></g><g transform="matrix(.35278 0 0 -.35278 -56.929 445.69)"><text transform="matrix(1 0 0 -1 .992 1273.7)" fill="#000000" font-family="'Segoe UI'" font-size="10.998px"><tspan x="0" y="0">ä</tspan></text></g><g transform="matrix(.35278 0 0 -.35278 -56.929 445.69)"><text transform="matrix(1 0 0 -1 48.501 1273.2)" fill="#000000" font-family="Tahoma" font-size="10.998px"><tspan x="0 6.5878019 11.679876 16.77195 22.556898 28.660788 32.345119 35.7435 43.233139 49.216049 55.319939 61.41283 63.909378 69.694328 73.092705 80.582344 86.565254 90.249588" y="0">Accent Double Dots</tspan></text></g><g transform="matrix(.35278 0 0 -.35278 -56.929 445.69)"><text transform="matrix(1 0 0 -1 .992 1256.8)" fill="#000000" font-family="OpenSymbol" font-size="10.998px"><tspan x="0" y="0">⋯</tspan></text></g><g transform="matrix(.35278 0 0 -.35278 -56.929 445.69)"><text transform="matrix(1 0 0 -1 48.501 1256.3)" fill="#000000" font-family="Tahoma" font-size="10.998px"><tspan x="0 6.5878019 11.679876 16.77195 22.556898 28.660788 32.345119 35.7435 42.144337 46.136608 48.633156 54.726048 57.222595 63.007542 66.405922 73.895561 79.878471 83.562805" y="0">Accent Triple Dots</tspan></text></g><g transform="matrix(.35278 0 0 -.35278 -56.929 445.69)"><text transform="matrix(1 0 0 -1 .992 1239.8)" fill="#000000" font-family="'Segoe UI'" font-size="10.998px"><tspan x="0" y="0">â</tspan></text></g><g transform="matrix(.35278 0 0 -.35278 -56.929 445.69)"><text transform="matrix(1 0 0 -1 48.501 1239.3)" fill="#000000" font-family="Tahoma" font-size="10.998px"><tspan x="0 6.5878019 11.679876 16.77195 22.556898 28.660788 32.345119 35.7435 43.145153 48.930103" y="0">Accent Hat</tspan></text></g><g transform="matrix(.35278 0 0 -.35278 -56.929 445.69)"><text transform="matrix(1 0 0 -1 .992 1222.8)" fill="#000000" font-family="'Segoe UI'" font-size="10.998px"><tspan x="0" y="0">ã</tspan></text></g><g transform="matrix(.35278 0 0 -.35278 -56.929 445.69)"><text transform="matrix(1 0 0 -1 48.501 1222.3)" fill="#000000" font-family="Tahoma" font-size="10.998px"><tspan x="0 6.5878019 11.679876 16.77195 22.556898 28.660788 32.345119 35.7435 42.144337 44.640881 47.137428 53.23032" y="0">Accent Tilde</tspan></text></g><g transform="matrix(.35278 0 0 -.35278 -56.929 445.69)"><text transform="matrix(1 0 0 -1 .992 1205.8)" fill="#000000" font-family="'Segoe UI'" font-size="10.998px"><tspan x="0" y="0">∑</tspan></text></g><g transform="matrix(.35278 0 0 -.35278 -56.929 445.69)"><text transform="matrix(1 0 0 -1 48.501 1205.3)" fill="#000000" font-family="Tahoma" font-size="10.998px"><tspan x="0 6.1038899 12.20778 21.402107 30.596436 36.381386 40.065716 42.56226 48.545174" y="0">Summation</tspan></text></g><g transform="matrix(.35278 0 0 -.35278 -56.929 445.69)"><text transform="matrix(1 0 0 -1 .992 1188.9)" fill="#000000" font-family="'Segoe UI'" font-size="10.998px"><tspan x="0" y="0">∏</tspan></text></g><g transform="matrix(.35278 0 0 -.35278 -56.929 445.69)"><text transform="matrix(1 0 0 -1 48.501 1188.3)" fill="#000000" font-family="Tahoma" font-size="10.998px"><tspan x="0 6.0928922 10.085166 16.068077 22.160971 28.26486 33.356934" y="0">Product</tspan></text></g><g transform="matrix(.35278 0 0 -.35278 -56.929 445.69)"><text transform="matrix(1 0 0 -1 .992 1171.9)" fill="#000000" font-family="OpenSymbol" font-size="10.998px"><tspan x="0" y="0">∐</tspan></text></g><g transform="matrix(.35278 0 0 -.35278 -56.929 445.69)"><text transform="matrix(1 0 0 -1 48.501 1171.4)" fill="#000000" font-family="Tahoma" font-size="10.998px"><tspan x="0 6.5988002 12.581712 18.674604 22.666878 28.64979 34.742683 40.846573 45.938644" y="0">Coproduct</tspan></text></g><g transform="matrix(.35278 0 0 -.35278 -56.929 445.69)"><text transform="matrix(1 0 0 -1 .992 1154.9)" fill="#000000" font-family="FreeMono" font-size="10.998px"><tspan x="0" y="0">⋂</tspan></text></g><g transform="matrix(.35278 0 0 -.35278 -56.929 445.69)"><text transform="matrix(1 0 0 -1 48.501 1154.4)" fill="#000000" font-family="Tahoma" font-size="10.998px"><tspan x="0 4.1022539 10.206144 13.890474 19.675423 23.667696 28.561806 34.346752 39.438828 43.123158 45.619705 51.602615" y="0">Intersection</tspan></text></g><g transform="matrix(.35278 0 0 -.35278 -56.929 445.69)"><text transform="matrix(1 0 0 -1 .992 1137.9)" fill="#000000" font-family="FreeMono" font-size="10.998px"><tspan x="0" y="0">⋃</tspan></text></g><g transform="matrix(.35278 0 0 -.35278 -56.929 445.69)"><text transform="matrix(1 0 0 -1 48.501 1137.4)" fill="#000000" font-family="Tahoma" font-size="10.998px"><tspan x="0 7.2036901 13.30758 15.804126 21.787039" y="0">Union</tspan></text></g><g transform="matrix(.35278 0 0 -.35278 -56.929 445.69)"><text transform="matrix(1 0 0 -1 .992 1120.9)" fill="#000000" font-family="FreeMono" font-size="10.998px"><tspan x="0" y="0">⨄</tspan></text></g><g transform="matrix(.35278 0 0 -.35278 -56.929 445.69)"><text transform="matrix(1 0 0 -1 48.501 1120.4)" fill="#000000" font-family="Tahoma" font-size="10.998px"><tspan x="0 7.2036901 13.30758 15.804126 21.787039 27.890928 31.28931 37.382202 39.87875 45.982639" y="0">Union Plus</tspan></text></g><g transform="matrix(.35278 0 0 -.35278 -56.929 445.69)"><text transform="matrix(1 0 0 -1 .992 1107.2)" fill="#000000" font-family="'Segoe UI'" font-size="10.998px"><tspan x="0" y="0">b</tspan></text></g><g transform="matrix(.35278 0 0 -.35278 -56.929 445.69)"><text transform="matrix(1 0 0 -1 48.501 1106.6)" fill="#000000" font-family="Tahoma" font-size="10.998px"><tspan x="0 6.4888201 8.9853659 15.089256 21.072168 30.266497 32.763042 38.547989 41.044537 44.442917 51.041718 57.024632 62.809578 66.306946 69.804306 72.30085 77.392929 79.889473 85.674423 91.778313 95.462639" y="0">Binomial Coefficients</tspan></text></g><g transform="matrix(.35278 0 0 -.35278 -56.929 445.69)" fill="#24292e" font-size="10.998px"><text transform="matrix(1 0 0 -1 207.5 1107.2)" font-family="'Segoe UI'"><tspan x="0 17.48682 23.271769 29.672604 58.157425 64.459274 70.860115 74.555443 78.250771 84.651604" y="0">bTopBottom</tspan></text><text transform="matrix(1 0 0 -1 200.89 1107.2)" font-family="FreeMono"><tspan x="0" y="0">⁜</tspan></text><text transform="matrix(1 0 0 -1 213.99 1107.2)" font-family="'Segoe UI Symbol'"><tspan x="0 29.683601 40.681602 87.665054" y="0">⏴⏵⏴⏵</tspan></text></g><g transform="matrix(.35278 0 0 -.35278 -56.929 445.69)"><text transform="matrix(1 0 0 -1 .992 1093.4)" fill="#000000" font-family="'Segoe UI'" font-size="10.998px"><tspan x="0" y="0">c</tspan></text></g><g transform="matrix(.35278 0 0 -.35278 -56.929 445.69)"><text transform="matrix(1 0 0 -1 48.501 1092.9)" fill="#000000" font-family="Tahoma" font-size="10.998px"><tspan x="0 6.5988002 12.383748 17.277859 23.062805" y="0">Cases</tspan></text></g><g transform="matrix(.35278 0 0 -.35278 -56.929 445.69)" fill="#24292e" font-size="10.998px"><text transform="matrix(1 0 0 -1 207.5 1093.4)" font-family="'Segoe UI'"><tspan x="0 5.0920739 19.378475 26.17524 31.762224 34.445736 40.648609 68.429558 75.226318 81.627159 87.830025 94.318848 97.002357 100.69769 103.3812 109.78204 126.97191 130.27132" y="0">c(ValueCondition)+</tspan></text><text transform="matrix(1 0 0 -1 200.89 1093.4)" font-family="FreeMono"><tspan x="0" y="0">⁜</tspan></text><text transform="matrix(1 0 0 -1 215.89 1093.4)" font-family="'Segoe UI Symbol'"><tspan x="0 38.086075 49.084072 107.65942" y="0">⏴⏵⏴⏵</tspan></text></g><g transform="matrix(.35278 0 0 -.35278 -56.929 445.69)"><text transform="matrix(1 0 0 -1 .992 1079.6)" fill="#000000" font-family="'Segoe UI'" font-size="10.998px"><tspan x="0" y="0">f</tspan></text></g><g transform="matrix(.35278 0 0 -.35278 -56.929 445.69)"><text transform="matrix(1 0 0 -1 48.501 1079.1)" fill="#000000" font-family="Tahoma" font-size="10.998px"><tspan x="0 5.6969638 9.6892376 15.474186 20.566259 24.250589 26.747135 32.730049" y="0">Fraction</tspan></text></g><g transform="matrix(.35278 0 0 -.35278 -56.929 445.69)" fill="#24292e" font-size="10.998px"><text transform="matrix(1 0 0 -1 207.5 1079.6)" font-family="'Segoe UI'"><tspan x="0 14.385384 22.578894 28.781767 38.273041 44.057987 47.852299 53.439281 57.134609 63.535446 89.314758 97.013359 102.79831 109.00117 115.40202 124.89329 127.5768 133.77968 139.36665 143.06198 149.46281" y="0">fNumeratorDenominator</tspan></text><text transform="matrix(1 0 0 -1 200.89 1079.6)" font-family="FreeMono"><tspan x="0" y="0">⁜</tspan></text><text transform="matrix(1 0 0 -1 210.9 1079.6)" font-family="'Segoe UI Symbol'"><tspan x="0 63.975365 74.973366 149.94673" y="0">⏴⏵⏴⏵</tspan></text></g><g transform="matrix(.35278 0 0 -.35278 -56.929 445.69)"><text transform="matrix(1 0 0 -1 .992 1062.6)" fill="#000000" font-family="'Segoe UI'" font-size="10.998px"><tspan x="0" y="0">(</tspan></text></g><g transform="matrix(.35278 0 0 -.35278 -56.929 445.69)"><text transform="matrix(1 0 0 -1 48.501 1062.1)" fill="#000000" font-family="Tahoma" font-size="10.998px"><tspan x="0 7.3026719 11.294946 17.277859 23.381748 29.47464 31.971186 38.075077 44.167969 47.566349 53.659241 59.444191 63.436462 69.221413 75.325302 79.009628 85.113525 90.898468 95.79258 98.289124" y="0">Grouping Parenthesis</tspan></text></g><g transform="matrix(.35278 0 0 -.35278 -56.929 445.69)"><text transform="matrix(1 0 0 -1 .992 1045.6)" fill="#000000" font-family="'Segoe UI'" font-size="10.998px"><tspan x="0" y="0">[</tspan></text></g><g transform="matrix(.35278 0 0 -.35278 -56.929 445.69)"><text transform="matrix(1 0 0 -1 48.501 1045.1)" fill="#000000" font-family="Tahoma" font-size="10.998px"><tspan x="0 7.3026719 11.294946 17.277859 23.381748 29.47464 31.971186 38.075077 44.167969 47.566349 54.055168 58.047443 63.832394 68.924469 74.412468 80.197418 83.881744" y="0">Grouping Brackets</tspan></text></g><g transform="matrix(.35278 0 0 -.35278 -56.929 445.69)"><text transform="matrix(1 0 0 -1 .992 1028.7)" fill="#000000" font-family="'Segoe UI'" font-size="10.998px"><tspan x="0" y="0">{</tspan></text></g><g transform="matrix(.35278 0 0 -.35278 -56.929 445.69)"><text transform="matrix(1 0 0 -1 48.501 1028.2)" fill="#000000" font-family="Tahoma" font-size="10.998px"><tspan x="0 7.3026719 11.294946 17.277859 23.381748 29.47464 31.971186 38.075077 44.167969 47.566349 54.055168 58.047443 63.832394 68.924469 74.709412" y="0">Grouping Braces</tspan></text></g><g transform="matrix(.35278 0 0 -.35278 -56.929 445.69)"><text transform="matrix(1 0 0 -1 .992 1011.7)" fill="#000000" font-family="OpenSymbol" font-size="10.998px"><tspan x="0" y="0">⟨</tspan></text></g><g transform="matrix(.35278 0 0 -.35278 -56.929 445.69)"><text transform="matrix(1 0 0 -1 48.501 1011.2)" fill="#000000" font-family="Tahoma" font-size="10.998px"><tspan x="0 7.3026719 11.294946 17.277859 23.381748 29.47464 31.971186 38.075077 44.167969 47.566349 54.154152 60.258041 66.350937 68.847481 74.632431" y="0">Grouping Angles</tspan></text></g><g transform="matrix(.35278 0 0 -.35278 -56.929 445.69)"><text transform="matrix(1 0 0 -1 .992 994.71)" fill="#000000" font-family="OpenSymbol" font-size="10.998px"><tspan x="0" y="0">⌈</tspan></text></g><g transform="matrix(.35278 0 0 -.35278 -56.929 445.69)"><text transform="matrix(1 0 0 -1 48.501 994.2)" fill="#000000" font-family="Tahoma" font-size="10.998px"><tspan x="0 7.3026719 11.294946 17.277859 23.381748 29.47464 31.971186 38.075077 44.167969 47.566349 54.16515 59.950096 62.446644" y="0">Grouping Ceil</tspan></text></g><g transform="matrix(.35278 0 0 -.35278 -56.929 445.69)"><text transform="matrix(1 0 0 -1 .992 977.7)" fill="#000000" font-family="OpenSymbol" font-size="10.998px"><tspan x="0" y="0">⌊</tspan></text></g><g transform="matrix(.35278 0 0 -.35278 -56.929 445.69)"><text transform="matrix(1 0 0 -1 48.501 977.19)" fill="#000000" font-family="Tahoma" font-size="10.998px"><tspan x="0 7.3026719 11.294946 17.277859 23.381748 29.47464 31.971186 38.075077 44.167969 47.566349 53.263313 55.759861 61.742771 67.725685" y="0">Grouping Floor</tspan></text></g><g transform="matrix(.35278 0 0 -.35278 -56.929 445.69)"><text transform="matrix(1 0 0 -1 .992 960.69)" fill="#000000" font-family="FreeMono" font-size="10.998px"><tspan x="0" y="0">⟪</tspan></text></g><g transform="matrix(.35278 0 0 -.35278 -56.929 445.69)"><text transform="matrix(1 0 0 -1 48.501 960.21)" fill="#000000" font-family="Tahoma" font-size="10.998px"><tspan x="0 7.3026719 11.294946 17.277859 23.381748 29.47464 31.971186 38.075077 44.167969 47.566349 55.055988 61.038898 67.142792 73.23568 75.732231 81.517174 84.915558 91.503357 97.607246 103.70014 106.19669 111.98164" y="0">Grouping Double Angles</tspan></text></g><g transform="matrix(.35278 0 0 -.35278 -56.929 445.69)"><text transform="matrix(1 0 0 -1 .992 943.8)" fill="#000000" font-family="OpenSymbol" font-size="10.998px"><tspan x="0" y="0">⟦</tspan></text></g><g transform="matrix(.35278 0 0 -.35278 -56.929 445.69)"><text transform="matrix(1 0 0 -1 48.501 943.31)" fill="#000000" font-family="Tahoma" font-size="10.998px"><tspan x="0 7.3026719 11.294946 17.277859 23.381748 29.47464 31.971186 38.075077 44.167969 47.566349 55.055988 61.038898 67.142792 73.23568 75.732231 81.517174 84.915558 91.404381 95.396652 101.1816 106.27367 111.76167 117.54662 121.23096" y="0">Grouping Double Brackets</tspan></text></g><g transform="matrix(.35278 0 0 -.35278 -56.929 445.69)"><text transform="matrix(1 0 0 -1 .992 926.79)" fill="#000000" font-family="'Segoe UI'" font-size="10.998px"><tspan x="0" y="0">|</tspan></text></g><g transform="matrix(.35278 0 0 -.35278 -56.929 445.69)"><text transform="matrix(1 0 0 -1 48.501 926.31)" fill="#000000" font-family="Tahoma" font-size="10.998px"><tspan x="0 7.3026719 11.294946 17.277859 23.381748 29.47464 31.971186 38.075077 44.167969 47.566349 54.055168 59.840118 63.832394" y="0">Grouping Bars</tspan></text></g><g transform="matrix(.35278 0 0 -.35278 -56.929 445.69)"><text transform="matrix(1 0 0 -1 .992 909.81)" fill="#000000" font-family="'Segoe UI'" font-size="10.998px"><tspan x="0" y="0">‖</tspan></text></g><g transform="matrix(.35278 0 0 -.35278 -56.929 445.69)"><text transform="matrix(1 0 0 -1 48.501 909.3)" fill="#000000" font-family="Tahoma" font-size="10.998px"><tspan x="0 7.3026719 11.294946 17.277859 23.381748 29.47464 31.971186 38.075077 44.167969 47.566349 55.055988 61.038898 67.142792 73.23568 75.732231 81.517174 84.915558 91.404381 97.189323 101.1816" y="0">Grouping Double Bars</tspan></text></g><g transform="matrix(.35278 0 0 -.35278 -56.929 445.69)"><text transform="matrix(1 0 0 -1 .992 892.8)" fill="#000000" font-family="FreeMono" font-size="10.998px"><tspan x="0" y="0">┊</tspan></text></g><g transform="matrix(.35278 0 0 -.35278 -56.929 445.69)"><text transform="matrix(1,0,0,-1,48.501,892.29)" fill="#000000" font-family="Tahoma" font-size="10.998px"><tspan x="0 7.3026719 11.294946 17.277859 23.381748 29.47464 31.971186 38.075077 44.167969 47.566349 53.758224 59.246227 65.031174 67.527718 70.926102 77.414925 83.199867" y="0">Grouping Eval Bar</tspan></text></g><g transform="matrix(.35278 0 0 -.35278 -56.929 445.69)"><text transform="matrix(1 0 0 -1 .992 875.79)" fill="#000000" font-family="'Segoe UI'" font-size="10.998px"><tspan x="0" y="0">∫</tspan></text></g><g transform="matrix(.35278 0 0 -.35278 -56.929 445.69)"><text transform="matrix(1,0,0,-1,48.501,875.31)" fill="#000000" font-family="Tahoma" font-size="10.998px"><tspan x="0 4.1022539 10.206144 13.890474 19.675423 25.768314 29.760588 35.545536" y="0">Integral</tspan></text></g><g transform="matrix(.35278 0 0 -.35278 -56.929 445.69)"><text transform="matrix(1 0 0 -1 .992 858.9)" fill="#000000" font-family="OpenSymbol" font-size="10.998px"><tspan x="0" y="0">∬</tspan></text></g><g transform="matrix(.35278 0 0 -.35278 -56.929 445.69)"><text transform="matrix(1 0 0 -1 48.501 858.39)" fill="#000000" font-family="Tahoma" font-size="10.998px"><tspan x="0 7.4896379 13.47255 19.576441 25.669333 28.165878 33.950825 37.349209 41.451462 47.555351 51.239681 57.024632 63.117523 67.109795 72.894745" y="0">Double Integral</tspan></text></g><g transform="matrix(.35278 0 0 -.35278 -56.929 445.69)"><text transform="matrix(1 0 0 -1 .992 841.89)" fill="#000000" font-family="OpenSymbol" font-size="10.998px"><tspan x="0" y="0">∭</tspan></text></g><g transform="matrix(.35278 0 0 -.35278 -56.929 445.69)"><text transform="matrix(1 0 0 -1 48.501 841.41)" fill="#000000" font-family="Tahoma" font-size="10.998px"><tspan x="0 6.400836 10.39311 12.889656 18.982548 21.479094 27.264042 30.662424 34.764679 40.868568 44.552898 50.337845 56.430737 60.423012 66.207962" y="0">Triple Integral</tspan></text></g><g transform="matrix(.35278 0 0 -.35278 -56.929 445.69)"><text transform="matrix(1 0 0 -1 .992 824.91)" fill="#000000" font-family="OpenSymbol" font-size="10.998px"><tspan x="0" y="0">∮</tspan></text></g><g transform="matrix(.35278 0 0 -.35278 -56.929 445.69)"><text transform="matrix(1,0,0,-1,48.501,824.4)" fill="#000000" font-family="Tahoma" font-size="10.998px"><tspan x="0 6.5988002 12.581712 18.685602 24.173603 30.156515 32.653061 38.75695 42.44128 44.937828 50.920738 57.024632 60.423012 64.525269 70.629158 74.313484 80.098434 86.191322 90.183601 95.968552" y="0">Convolution Integral</tspan></text></g><g transform="matrix(.35278 0 0 -.35278 -56.929 445.69)"><text transform="matrix(1 0 0 -1 .992 807.9)" fill="#000000" font-family="OpenSymbol" font-size="10.998px"><tspan x="0" y="0">∯</tspan></text></g><g transform="matrix(.35278 0 0 -.35278 -56.929 445.69)"><text transform="matrix(1 0 0 -1 48.501 807.39)" fill="#000000" font-family="Tahoma" font-size="10.998px"><tspan x="0 7.4896379 13.47255 19.576441 25.669333 28.165878 33.950825 37.349209 43.948009 49.93092 56.034809 61.522812 67.505722 70.002274 76.106163 79.790489 82.287033 88.269951 94.37384 97.772217 101.87447 107.97836 111.6627 117.44764 123.54053 127.53281 133.31775" y="0">Double Convolution Integral</tspan></text></g><g transform="matrix(.35278 0 0 -.35278 -56.929 445.69)"><text transform="matrix(1 0 0 -1 .992 791.01)" fill="#000000" font-family="OpenSymbol" font-size="10.998px"><tspan x="0" y="0">∰</tspan></text></g><g transform="matrix(.35278 0 0 -.35278 -56.929 445.69)"><text transform="matrix(1 0 0 -1 48.501 790.41)" fill="#000000" font-family="Tahoma" font-size="10.998px"><tspan x="0 6.400836 10.39311 12.889656 18.982548 21.479094 27.264042 30.662424 37.261223 43.244137 49.348026 54.836029 60.818939 63.315487 69.419373 73.103706 75.60025 81.58316 87.687057 91.085434 95.187691 101.29158 104.97591 110.76086 116.85375 120.84602 126.63097" y="0">Triple Convolution Integral</tspan></text></g><g transform="matrix(.35278 0 0 -.35278 -56.929 445.69)"><text transform="matrix(1 0 0 -1 .992 777.2)" fill="#24292e" font-family="FreeMono" font-size="10.998px"><tspan x="0" y="0">⊞</tspan></text></g><g transform="matrix(.35278 0 0 -.35278 -56.929 445.69)"><text transform="matrix(1 0 0 -1 48.501 776.69)" fill="#000000" font-family="Tahoma" font-size="10.998px"><tspan x="0 8.4904556 14.275404 17.959734 21.952007 24.448553" y="0">Matrix</tspan></text></g><g transform="matrix(.35278 0 0 -.35278 -56.929 445.69)" fill="#24292e" font-size="10.998px"><text transform="matrix(1 0 0 -1 214.1 777.2)" font-family="'Segoe UI'"><tspan x="0 6.2028718 9.5022717 23.788673 29.375658 35.578529 39.273857 43.068169 59.356205 62.655605 70.156242 76.359116 83.859749 87.159149" y="0">n((Entry)&lt;n&gt;)+</tspan></text><text transform="matrix(1 0 0 -1 200.89 777.2)" font-family="FreeMono"><tspan x="0 6.5988002" y="0">⁜⊞</tspan></text><text transform="matrix(1 0 0 -1 226.91 777.2)" font-family="'Segoe UI Symbol'"><tspan x="0 35.578529" y="0">⏴⏵</tspan></text></g><g transform="matrix(.35278 0 0 -.35278 -56.929 445.69)"><text transform="matrix(1 0 0 -1 .992 763.4)" fill="#24292e" font-family="'Segoe UI'" font-size="10.998px"><tspan x="0" y="0">√</tspan></text></g><g transform="matrix(.35278 0 0 -.35278 -56.929 445.69)"><text transform="matrix(1 0 0 -1 48.501 762.89)" fill="#000000" font-family="Tahoma" font-size="10.998px"><tspan x="0 6.7967639 12.779676 18.762589" y="0">Root</tspan></text></g><g transform="matrix(.35278 0 0 -.35278 -56.929 445.69)" fill="#24292e" font-size="10.998px"><text transform="matrix(1 0 0 -1 207.5 763.4)" font-family="'Segoe UI'"><tspan x="0 18.080711 24.382566 30.783401 37.272221" y="0">√Body</tspan></text><text transform="matrix(1 0 0 -1 200.89 763.4)" font-family="FreeMono"><tspan x="0" y="0">⁜</tspan></text><text transform="matrix(1 0 0 -1 214.61 763.4)" font-family="'Segoe UI Symbol'"><tspan x="0 35.479549" y="0">⏴⏵</tspan></text></g><g transform="matrix(.35278 0 0 -.35278 -56.929 445.69)"><text transform="matrix(1 0 0 -1 .992 745.91)" fill="#000000" font-family="FreeMono" font-size="10.998px"><tspan x="0" y="0">∛</tspan></text></g><g transform="matrix(.35278 0 0 -.35278 -56.929 445.69)"><text transform="matrix(1 0 0 -1 48.501 745.91)" fill="#000000" font-family="Tahoma" font-size="10.998px"><tspan x="0 6.7967639 12.779676 18.762589 22.446918 25.845301 31.94919 37.041264 41.033539 43.530083 49.622974 53.307304 59.092255" y="0">Root Scripted</tspan></text></g><g transform="matrix(.35278 0 0 -.35278 -56.929 445.69)"><text transform="matrix(1 0 0 -1 .992 732.59)" fill="#000000" font-family="'Segoe UI'" font-size="10.998px"><tspan x="0" y="0">_</tspan></text></g><g transform="matrix(.35278 0 0 -.35278 -56.929 445.69)"><text transform="matrix(1 0 0 -1 48.501 732.1)" fill="#000000" font-family="Tahoma" font-size="10.998px"><tspan x="0 6.1038899 12.20778 18.300673 23.194782 28.286856 32.279129 34.775677 40.868568" y="0">Subscript</tspan></text></g><g transform="matrix(.35278 0 0 -.35278 -56.929 445.69)" fill="#24292e" font-size="10.998px"><text transform="matrix(1 0 0 -1 207.5 732.59)" font-family="'Segoe UI'"><tspan x="0 15.584166 21.380112 27.582985 34.071804 38.75695 43.849026 47.643337 50.326847 56.815666" y="0">_Subscript</tspan></text><text transform="matrix(1 0 0 -1 200.89 732.59)" font-family="FreeMono"><tspan x="0" y="0">⁜</tspan></text><text transform="matrix(1 0 0 -1 212.09 732.59)" font-family="'Segoe UI Symbol'"><tspan x="0 55.97982" y="0">⏴⏵</tspan></text></g><g transform="matrix(.35278 0 0 -.35278 -56.929 445.69)"><text transform="matrix(1 0 0 -1 .992 718.89)" fill="#000000" font-family="'Segoe UI'" font-size="10.998px"><tspan x="0" y="0">^</tspan></text></g><g transform="matrix(.35278 0 0 -.35278 -56.929 445.69)"><text transform="matrix(1 0 0 -1 48.501 718.41)" fill="#000000" font-family="Tahoma" font-size="10.998px"><tspan x="0 6.1038899 12.20778 18.300673 24.085621 28.077894 32.972004 38.064079 42.056351 44.552898 50.64579" y="0">Superscript</tspan></text></g><g transform="matrix(.35278 0 0 -.35278 -56.929 445.69)" fill="#24292e" font-size="10.998px"><text transform="matrix(1 0 0 -1 207.5 718.89)" font-family="'Segoe UI'"><tspan x="0 18.487638 24.283585 30.486456 36.975277 42.760223 46.554535 51.239681 56.331757 60.126064 62.809578 69.298401" y="0">^Superscript</tspan></text><text transform="matrix(1 0 0 -1 200.89 718.89)" font-family="FreeMono"><tspan x="0" y="0">⁜</tspan></text><text transform="matrix(1 0 0 -1 215.01 718.89)" font-family="'Segoe UI Symbol'"><tspan x="0 65.581078" y="0">⏴⏵</tspan></text></g><g transform="matrix(.35278 0 0 -.35278 -56.929 445.69)"><text transform="matrix(1 0 0 -1 .992 701.89)" fill="#000000" font-family="'Segoe UI'" font-size="10.998px"><tspan x="0" y="0">Δ</tspan></text></g><g transform="matrix(.35278 0 0 -.35278 -56.929 445.69)"><text transform="matrix(1 0 0 -1 48.501 701.4)" fill="#000000" font-family="Tahoma" font-size="10.998px"><tspan x="0 7.4896379 13.593528 19.378475 21.875023 26.769133 31.861206 35.853481 38.350025 44.442917" y="0">Dualscript</tspan></text></g><g transform="matrix(.35278 0 0 -.35278 -56.929 445.69)"><text transform="matrix(1 0 0 -1 .992 688.11)" fill="#000000" font-family="'Segoe UI'" font-size="10.998px"><tspan x="0" y="0">l</tspan></text></g><g transform="matrix(.35278 0 0 -.35278 -56.929 445.69)"><text transform="matrix(1,0,0,-1,48.501,687.6)" fill="#000000" font-family="Tahoma" font-size="10.998px"><tspan x="0 5.4880018 7.9845481 17.178877 19.675423" y="0">Limit</tspan></text></g><g transform="matrix(.35278 0 0 -.35278 -56.929 445.69)" fill="#24292e" font-size="10.998px"><text transform="matrix(1 0 0 -1 207.5 688.11)" font-family="'Segoe UI'"><tspan x="0 13.681512 19.466459 25.251408 30.255499 55.935829 63.029537 69.518356 76.007179 79.801491 86.202324 91.789307 96.881386 103.08425 105.76777 111.97063" y="0">lTextApproaching</tspan></text><text transform="matrix(1 0 0 -1 200.89 688.11)" font-family="FreeMono"><tspan x="0" y="0">⁜</tspan></text><text transform="matrix(1 0 0 -1 210.19 688.11)" font-family="'Segoe UI Symbol'"><tspan x="0 31.278313 42.276314 115.85294" y="0">⏴⏵⏴⏵</tspan></text></g><g transform="matrix(.35278 0 0 -.35278 -56.929 445.69)"><text transform="matrix(1 0 0 -1 .992 670.59)" fill="#000000" font-family="'Liberation Sans'" font-size="10.998px"><tspan x="0" y="0">↑</tspan></text></g><g transform="matrix(.35278 0 0 -.35278 -56.929 445.69)"><text transform="matrix(1 0 0 -1 48.501 670.59)" fill="#000000" font-family="'Liberation Sans'" font-size="10.998px"><tspan x="0 7.896564 14.000454 20.104343 26.208235 29.892565 35.391563 40.890564 44.574894 46.972458 53.076347 56.166786 62.270676 68.374565 71.465004 80.648331 86.752228" y="0">Underscripted max</tspan></text></g><g transform="matrix(.35278 0 0 -.35278 -56.929 445.69)"><text transform="matrix(1 0 0 -1 .992 653.61)" fill="#000000" font-family="'Liberation Sans'" font-size="10.998px"><tspan x="0" y="0">↓</tspan></text></g><g transform="matrix(.35278 0 0 -.35278 -56.929 445.69)"><text transform="matrix(1 0 0 -1 48.501 653.61)" fill="#000000" font-family="'Liberation Sans'" font-size="10.998px"><tspan x="0 7.896564 14.000454 20.104343 26.208235 29.892565 35.391563 40.890564 44.574894 46.972458 53.076347 56.166786 62.270676 68.374565 71.465004 80.648331 83.045898" y="0">Underscripted min</tspan></text></g><g transform="matrix(.35278 0 0 -.35278 -56.929 445.69)"><text transform="matrix(1 0 0 -1 .992 636.69)" fill="#000000" font-family="'Segoe UI'" font-size="10.998px"><tspan x="0" y="0">↗</tspan></text></g><g transform="matrix(.35278 0 0 -.35278 -56.929 445.69)"><text transform="matrix(1,0,0,-1,48.501,636.69)" fill="#000000" font-family="'Liberation Sans'" font-size="10.998px"><tspan x="0 7.896564 14.000454 20.104343 26.208235 29.892565 35.391563 40.890564 44.574894 46.972458 53.076347 56.166786 62.270676 68.374565 71.465004 76.964005 83.067894" y="0">Underscripted sup</tspan></text></g><g transform="matrix(.35278 0 0 -.35278 -56.929 445.69)"><text transform="matrix(1 0 0 -1 .992 619.71)" fill="#000000" font-family="OpenSymbol" font-size="10.998px"><tspan x="0" y="0">↘</tspan></text></g><g transform="matrix(.35278 0 0 -.35278 -56.929 445.69)"><text transform="matrix(1,0,0,-1,48.501,619.71)" fill="#000000" font-family="'Liberation Sans'" font-size="10.998px"><tspan x="0 7.896564 14.000454 20.104343 26.208235 29.892565 35.391563 40.890564 44.574894 46.972458 53.076347 56.166786 62.270676 68.374565 71.465004 73.862572 79.966461" y="0">Underscripted inf</tspan></text></g><g transform="matrix(.35278 0 0 -.35278 -56.929 445.69)"><text transform="matrix(1 0 0 -1 200.89 1341.7)" fill="#24292e" font-family="FreeMono" font-size="10.998px"><tspan x="0" y="0">⁜</tspan></text></g><g transform="matrix(.35278 0 0 -.35278 -56.929 445.69)"><text transform="matrix(1 0 0 -1 207.61 1341.7)" fill="#000000" font-family="'Segoe UI'" font-size="10.998px"><tspan x="0" y="0">→</tspan></text></g><g transform="matrix(.35278 0 0 -.35278 -56.929 445.69)"><text transform="matrix(1 0 0 -1 216.99 1341.7)" fill="#24292e" font-family="'Segoe UI Symbol'" font-size="10.998px"><tspan x="0" y="0">⏴</tspan></text></g><g transform="matrix(.35278 0 0 -.35278 -56.929 445.69)" fill="#24292e" font-size="10.998px"><text transform="matrix(1 0 0 -1 227.99 1341.7)" font-family="'Segoe UI'"><tspan x="0 5.8839302 11.580894 16.672968" y="0">Text</tspan></text><text transform="matrix(1 0 0 -1 248.29 1341.7)" font-family="'Segoe UI Symbol'"><tspan x="0" y="0">⏵</tspan></text></g><g transform="matrix(.35278 0 0 -.35278 -56.929 445.69)"><text transform="matrix(1 0 0 -1 200.89 1324.7)" fill="#24292e" font-family="FreeMono" font-size="10.998px"><tspan x="0" y="0">⁜</tspan></text></g><g transform="matrix(.35278 0 0 -.35278 -56.929 445.69)"><text transform="matrix(1 0 0 -1 207.61 1324.7)" fill="#000000" font-family="'Segoe UI'" font-size="10.998px"><tspan x="0" y="0">ā</tspan></text></g><g transform="matrix(.35278 0 0 -.35278 -56.929 445.69)" fill="#24292e" font-size="10.998px"><text transform="matrix(1 0 0 -1 224.19 1324.7)" font-family="'Segoe UI'"><tspan x="0 5.7849479 11.569896 16.573986" y="0">Text</tspan></text><text transform="matrix(1 0 0 -1 213.19 1324.7)" font-family="'Segoe UI Symbol'"><tspan x="0 31.278313" y="0">⏴⏵</tspan></text></g><g transform="matrix(.35278 0 0 -.35278 -56.929 445.69)"><text transform="matrix(1 0 0 -1 200.89 1307.7)" fill="#24292e" font-family="FreeMono" font-size="10.998px"><tspan x="0" y="0">⁜</tspan></text></g><g transform="matrix(.35278 0 0 -.35278 -56.929 445.69)"><text transform="matrix(1 0 0 -1 207.61 1307.7)" fill="#000000" font-family="'Segoe UI'" font-size="10.998px"><tspan x="0" y="0">ă</tspan></text></g><g transform="matrix(.35278 0 0 -.35278 -56.929 445.69)" fill="#24292e" font-size="10.998px"><text transform="matrix(1 0 0 -1 224.19 1307.7)" font-family="'Segoe UI'"><tspan x="0 5.7849479 11.569896 16.573986" y="0">Text</tspan></text><text transform="matrix(1 0 0 -1 213.19 1307.7)" font-family="'Segoe UI Symbol'"><tspan x="0 31.278313" y="0">⏴⏵</tspan></text></g><g transform="matrix(.35278 0 0 -.35278 -56.929 445.69)"><text transform="matrix(1 0 0 -1 200.89 1290.7)" fill="#24292e" font-family="FreeMono" font-size="10.998px"><tspan x="0" y="0">⁜</tspan></text></g><g transform="matrix(.35278 0 0 -.35278 -56.929 445.69)"><text transform="matrix(1 0 0 -1 207.61 1290.7)" fill="#000000" font-family="'Segoe UI'" font-size="10.998px"><tspan x="0" y="0">ȧ</tspan></text></g><g transform="matrix(.35278 0 0 -.35278 -56.929 445.69)" fill="#24292e" font-size="10.998px"><text transform="matrix(1 0 0 -1 224.19 1290.7)" font-family="'Segoe UI'"><tspan x="0 5.7849479 11.569896 16.573986" y="0">Text</tspan></text><text transform="matrix(1 0 0 -1 213.19 1290.7)" font-family="'Segoe UI Symbol'"><tspan x="0 31.278313" y="0">⏴⏵</tspan></text></g><g transform="matrix(.35278 0 0 -.35278 -56.929 445.69)"><text transform="matrix(1 0 0 -1 200.89 1273.7)" fill="#24292e" font-family="FreeMono" font-size="10.998px"><tspan x="0" y="0">⁜</tspan></text></g><g transform="matrix(.35278 0 0 -.35278 -56.929 445.69)"><text transform="matrix(1 0 0 -1 207.61 1273.7)" fill="#000000" font-family="'Segoe UI'" font-size="10.998px"><tspan x="0" y="0">ä</tspan></text></g><g transform="matrix(.35278 0 0 -.35278 -56.929 445.69)" fill="#24292e" font-size="10.998px"><text transform="matrix(1 0 0 -1 224.19 1273.7)" font-family="'Segoe UI'"><tspan x="0 5.7849479 11.569896 16.573986" y="0">Text</tspan></text><text transform="matrix(1 0 0 -1 213.19 1273.7)" font-family="'Segoe UI Symbol'"><tspan x="0 31.278313" y="0">⏴⏵</tspan></text></g><g transform="matrix(.35278 0 0 -.35278 -56.929 445.69)"><text transform="matrix(1 0 0 -1 200.89 1256.8)" fill="#24292e" font-family="FreeMono" font-size="10.998px"><tspan x="0" y="0">⁜</tspan></text></g><g transform="matrix(.35278 0 0 -.35278 -56.929 445.69)"><text transform="matrix(1 0 0 -1 207.61 1256.8)" fill="#000000" font-family="OpenSymbol" font-size="10.998px"><tspan x="0" y="0">⋯</tspan></text></g><g transform="matrix(.35278 0 0 -.35278 -56.929 445.69)"><text transform="matrix(1 0 0 -1 218.61 1256.8)" fill="#24292e" font-family="'Segoe UI Symbol'" font-size="10.998px"><tspan x="0" y="0">⏴</tspan></text></g><g transform="matrix(.35278 0 0 -.35278 -56.929 445.69)" fill="#24292e" font-size="10.998px"><text transform="matrix(1 0 0 -1 229.49 1256.8)" font-family="'Segoe UI'"><tspan x="0 5.8839302 11.580894 16.672968" y="0">Text</tspan></text><text transform="matrix(1 0 0 -1 249.79 1256.8)" font-family="'Segoe UI Symbol'"><tspan x="0" y="0">⏵</tspan></text></g><g transform="matrix(.35278 0 0 -.35278 -56.929 445.69)"><text transform="matrix(1 0 0 -1 200.89 1239.8)" fill="#24292e" font-family="FreeMono" font-size="10.998px"><tspan x="0" y="0">⁜</tspan></text></g><g transform="matrix(.35278 0 0 -.35278 -56.929 445.69)"><text transform="matrix(1 0 0 -1 207.61 1239.8)" fill="#000000" font-family="'Segoe UI'" font-size="10.998px"><tspan x="0" y="0">â</tspan></text></g><g transform="matrix(.35278 0 0 -.35278 -56.929 445.69)" fill="#24292e" font-size="10.998px"><text transform="matrix(1 0 0 -1 224.19 1239.8)" font-family="'Segoe UI'"><tspan x="0 5.7849479 11.569896 16.573986" y="0">Text</tspan></text><text transform="matrix(1 0 0 -1 213.19 1239.8)" font-family="'Segoe UI Symbol'"><tspan x="0 31.278313" y="0">⏴⏵</tspan></text></g><g transform="matrix(.35278 0 0 -.35278 -56.929 445.69)"><text transform="matrix(1 0 0 -1 200.89 1222.8)" fill="#24292e" font-family="FreeMono" font-size="10.998px"><tspan x="0" y="0">⁜</tspan></text></g><g transform="matrix(.35278 0 0 -.35278 -56.929 445.69)"><text transform="matrix(1 0 0 -1 207.61 1222.8)" fill="#000000" font-family="'Segoe UI'" font-size="10.998px"><tspan x="0" y="0">ã</tspan></text></g><g transform="matrix(.35278 0 0 -.35278 -56.929 445.69)" fill="#24292e" font-size="10.998px"><text transform="matrix(1 0 0 -1 224.19 1222.8)" font-family="'Segoe UI'"><tspan x="0 5.7849479 11.569896 16.573986" y="0">Text</tspan></text><text transform="matrix(1 0 0 -1 213.19 1222.8)" font-family="'Segoe UI Symbol'"><tspan x="0 31.278313" y="0">⏴⏵</tspan></text></g><g transform="matrix(.35278 0 0 -.35278 -56.929 445.69)"><text transform="matrix(1 0 0 -1 200.89 1205.8)" fill="#24292e" font-family="FreeMono" font-size="10.998px"><tspan x="0" y="0">⁜</tspan></text></g><g transform="matrix(.35278 0 0 -.35278 -56.929 445.69)"><text transform="matrix(1 0 0 -1 207.61 1205.8)" fill="#000000" font-family="'Segoe UI'" font-size="10.998px"><tspan x="0" y="0">∑</tspan></text></g><g transform="matrix(.35278 0 0 -.35278 -56.929 445.69)"><text transform="matrix(1 0 0 -1 214.41 1205.8)" fill="#000000" font-family="'Segoe UI'" font-size="10.998px"><tspan x="0" y="0">(</tspan></text></g><g transform="matrix(.35278 0 0 -.35278 -56.929 445.69)" fill="#24292e" font-size="10.998px"><text transform="matrix(1 0 0 -1 228.61 1205.8)" font-family="'Segoe UI'"><tspan x="0 7.5886202 13.791492 20.280312 26.06526 29.85957 34.6437 39.735775 43.530083 46.12561 52.614433 67.395744 81.58316 89.875656 95.165695 101.04962 104.84393 109.52908 114.53317 118.32748 121.12097 127.52181 142.30312 145.50354" y="0">Underscript(Overscript)?</tspan></text><text transform="matrix(1 0 0 -1 217.59 1205.8)" font-family="'Segoe UI Symbol'"><tspan x="0 67.472733 81.660149 142.4351" y="0">⏴⏵⏴⏵</tspan></text></g><g transform="matrix(.35278 0 0 -.35278 -56.929 445.69)"><text transform="matrix(1 0 0 -1 379.19 1205.8)" fill="#000000" font-family="'Segoe UI'" font-size="10.998px"><tspan x="0 3.2994001" y="0">)?</tspan></text></g><g transform="matrix(.35278 0 0 -.35278 -56.929 445.69)"><text transform="matrix(1 0 0 -1 200.89 1188.9)" fill="#24292e" font-family="FreeMono" font-size="10.998px"><tspan x="0" y="0">⁜</tspan></text></g><g transform="matrix(.35278 0 0 -.35278 -56.929 445.69)"><text transform="matrix(1 0 0 -1 207.61 1188.9)" fill="#000000" font-family="'Segoe UI'" font-size="10.998px"><tspan x="0" y="0">∏</tspan></text></g><g transform="matrix(.35278 0 0 -.35278 -56.929 445.69)"><text transform="matrix(1 0 0 -1 215.89 1188.9)" fill="#000000" font-family="'Segoe UI'" font-size="10.998px"><tspan x="0" y="0">(</tspan></text></g><g transform="matrix(.35278 0 0 -.35278 -56.929 445.69)" fill="#24292e" font-size="10.998px"><text transform="matrix(1 0 0 -1 230.09 1188.9)" font-family="'Segoe UI'"><tspan x="0 7.5886202 13.791492 20.280312 26.164242 29.958551 34.6437 39.735775 43.530083 46.12561 52.614433 67.395744 81.58316 89.875656 95.165695 101.04962 104.84393 109.52908 114.53317 118.32748 121.12097 127.52181 142.30312 145.50354" y="0">Underscript(Overscript)?</tspan></text><text transform="matrix(1 0 0 -1 219.09 1188.9)" font-family="'Segoe UI Symbol'"><tspan x="0 67.472733 81.660149 142.4351" y="0">⏴⏵⏴⏵</tspan></text></g><g transform="matrix(.35278 0 0 -.35278 -56.929 445.69)"><text transform="matrix(1 0 0 -1 380.69 1188.9)" fill="#000000" font-family="'Segoe UI'" font-size="10.998px"><tspan x="0 3.2994001" y="0">)?</tspan></text></g><g transform="matrix(.35278 0 0 -.35278 -56.929 445.69)"><text transform="matrix(1 0 0 -1 200.89 1171.9)" fill="#24292e" font-family="FreeMono" font-size="10.998px"><tspan x="0" y="0">⁜</tspan></text></g><g transform="matrix(.35278 0 0 -.35278 -56.929 445.69)"><text transform="matrix(1 0 0 -1 207.61 1171.9)" fill="#000000" font-family="OpenSymbol" font-size="10.998px"><tspan x="0" y="0">∐</tspan></text></g><g transform="matrix(.35278 0 0 -.35278 -56.929 445.69)"><text transform="matrix(1 0 0 -1 217.39 1171.9)" fill="#000000" font-family="'Segoe UI'" font-size="10.998px"><tspan x="0" y="0">(</tspan></text></g><g transform="matrix(.35278 0 0 -.35278 -56.929 445.69)" fill="#24292e" font-size="10.998px"><text transform="matrix(1 0 0 -1 231.59 1171.9)" font-family="'Segoe UI'"><tspan x="0 7.5886202 13.879476 20.280312 26.164242 29.958551 34.6437 39.735775 43.530083 46.213596 52.614433 67.395744 81.58316 89.875656 95.165695 101.04962 104.84393 109.52908 114.53317 118.32748 121.12097 127.52181 142.30312 145.50354" y="0">Underscript(Overscript)?</tspan></text><text transform="matrix(1 0 0 -1 220.59 1171.9)" font-family="'Segoe UI Symbol'"><tspan x="0 67.472733 81.660149 142.4351" y="0">⏴⏵⏴⏵</tspan></text></g><g transform="matrix(.35278 0 0 -.35278 -56.929 445.69)"><text transform="matrix(1 0 0 -1 382.31 1171.9)" fill="#000000" font-family="'Segoe UI'" font-size="10.998px"><tspan x="0 3.200418" y="0">)?</tspan></text></g><g transform="matrix(.35278 0 0 -.35278 -56.929 445.69)"><text transform="matrix(1 0 0 -1 200.89 1154.9)" fill="#24292e" font-family="FreeMono" font-size="10.998px"><tspan x="0" y="0">⁜</tspan></text></g><g transform="matrix(.35278 0 0 -.35278 -56.929 445.69)"><text transform="matrix(1 0 0 -1 207.61 1154.9)" fill="#000000" font-family="FreeMono" font-size="10.998px"><tspan x="0" y="0">⋂</tspan></text></g><g transform="matrix(.35278 0 0 -.35278 -56.929 445.69)"><text transform="matrix(1 0 0 -1 214.21 1154.9)" fill="#000000" font-family="'Segoe UI'" font-size="10.998px"><tspan x="0" y="0">(</tspan></text></g><g transform="matrix(.35278 0 0 -.35278 -56.929 445.69)" fill="#24292e" font-size="10.998px"><text transform="matrix(1 0 0 -1 228.39 1154.9)" font-family="'Segoe UI'"><tspan x="0 7.5886202 13.791492 20.280312 26.164242 29.85957 34.6437 39.735775 43.530083 46.12561 52.614433 67.395744 81.58316 89.875656 95.165695 101.04962 104.84393 109.52908 114.53317 118.32748 121.12097 127.52181 142.30312 145.50354" y="0">Underscript(Overscript)?</tspan></text><text transform="matrix(1 0 0 -1 217.39 1154.9)" font-family="'Segoe UI Symbol'"><tspan x="0 67.472733 81.660149 142.4351" y="0">⏴⏵⏴⏵</tspan></text></g><g transform="matrix(.35278 0 0 -.35278 -56.929 445.69)"><text transform="matrix(1 0 0 -1 378.99 1154.9)" fill="#000000" font-family="'Segoe UI'" font-size="10.998px"><tspan x="0 3.2994001" y="0">)?</tspan></text></g><g transform="matrix(.35278 0 0 -.35278 -56.929 445.69)"><text transform="matrix(1 0 0 -1 200.89 1137.9)" fill="#24292e" font-family="FreeMono" font-size="10.998px"><tspan x="0" y="0">⁜</tspan></text></g><g transform="matrix(.35278 0 0 -.35278 -56.929 445.69)"><text transform="matrix(1 0 0 -1 207.61 1137.9)" fill="#000000" font-family="FreeMono" font-size="10.998px"><tspan x="0" y="0">⋃</tspan></text></g><g transform="matrix(.35278 0 0 -.35278 -56.929 445.69)"><text transform="matrix(1 0 0 -1 214.21 1137.9)" fill="#000000" font-family="'Segoe UI'" font-size="10.998px"><tspan x="0" y="0">(</tspan></text></g><g transform="matrix(.35278 0 0 -.35278 -56.929 445.69)" fill="#24292e" font-size="10.998px"><text transform="matrix(1 0 0 -1 228.39 1137.9)" font-family="'Segoe UI'"><tspan x="0 7.5886202 13.791492 20.280312 26.164242 29.85957 34.6437 39.735775 43.530083 46.12561 52.614433 67.395744 81.58316 89.875656 95.165695 101.04962 104.84393 109.52908 114.53317 118.32748 121.12097 127.52181 142.30312 145.50354" y="0">Underscript(Overscript)?</tspan></text><text transform="matrix(1 0 0 -1 217.39 1137.9)" font-family="'Segoe UI Symbol'"><tspan x="0 67.472733 81.660149 142.4351" y="0">⏴⏵⏴⏵</tspan></text></g><g transform="matrix(.35278 0 0 -.35278 -56.929 445.69)"><text transform="matrix(1 0 0 -1 378.99 1137.9)" fill="#000000" font-family="'Segoe UI'" font-size="10.998px"><tspan x="0 3.2994001" y="0">)?</tspan></text></g><g transform="matrix(.35278 0 0 -.35278 -56.929 445.69)"><text transform="matrix(1 0 0 -1 200.89 1120.9)" fill="#24292e" font-family="FreeMono" font-size="10.998px"><tspan x="0" y="0">⁜</tspan></text></g><g transform="matrix(.35278 0 0 -.35278 -56.929 445.69)"><text transform="matrix(1 0 0 -1 207.61 1120.9)" fill="#000000" font-family="FreeMono" font-size="10.998px"><tspan x="0" y="0">⨄</tspan></text></g><g transform="matrix(.35278 0 0 -.35278 -56.929 445.69)"><text transform="matrix(1 0 0 -1 214.21 1120.9)" fill="#000000" font-family="'Segoe UI'" font-size="10.998px"><tspan x="0" y="0">(</tspan></text></g><g transform="matrix(.35278 0 0 -.35278 -56.929 445.69)" fill="#24292e" font-size="10.998px"><text transform="matrix(1 0 0 -1 228.39 1120.9)" font-family="'Segoe UI'"><tspan x="0 7.5886202 13.791492 20.280312 26.164242 29.85957 34.6437 39.735775 43.530083 46.12561 52.614433 67.395744 81.58316 89.875656 95.165695 101.04962 104.84393 109.52908 114.53317 118.32748 121.12097 127.52181 142.30312 145.50354" y="0">Underscript(Overscript)?</tspan></text><text transform="matrix(1 0 0 -1 217.39 1120.9)" font-family="'Segoe UI Symbol'"><tspan x="0 67.472733 81.660149 142.4351" y="0">⏴⏵⏴⏵</tspan></text></g><g transform="matrix(.35278 0 0 -.35278 -56.929 445.69)"><text transform="matrix(1 0 0 -1 378.99 1120.9)" fill="#000000" font-family="'Segoe UI'" font-size="10.998px"><tspan x="0 3.2994001" y="0">)?</tspan></text></g><g transform="matrix(.35278 0 0 -.35278 -56.929 445.69)"><text transform="matrix(1 0 0 -1 200.89 1062.6)" fill="#24292e" font-family="FreeMono" font-size="10.998px"><tspan x="0" y="0">⁜</tspan></text></g><g transform="matrix(.35278 0 0 -.35278 -56.929 445.69)"><text transform="matrix(1 0 0 -1 207.61 1062.6)" fill="#000000" font-family="'Segoe UI'" font-size="10.998px"><tspan x="0" y="0">(</tspan></text></g><g transform="matrix(.35278 0 0 -.35278 -56.929 445.69)" fill="#24292e" font-size="10.998px"><text transform="matrix(1 0 0 -1 221.81 1062.6)" font-family="'Segoe UI'"><tspan x="0 5.8839302 11.580894 16.672968" y="0">Text</tspan></text><text transform="matrix(1 0 0 -1 210.81 1062.6)" font-family="'Segoe UI Symbol'"><tspan x="0 31.278313" y="0">⏴⏵</tspan></text></g><g transform="matrix(.35278 0 0 -.35278 -56.929 445.69)"><text transform="matrix(1 0 0 -1 200.89 1045.6)" fill="#24292e" font-family="FreeMono" font-size="10.998px"><tspan x="0" y="0">⁜</tspan></text></g><g transform="matrix(.35278 0 0 -.35278 -56.929 445.69)"><text transform="matrix(1 0 0 -1 207.61 1045.6)" fill="#24292e" font-family="'Segoe UI'" font-size="10.998px"><tspan x="0" y="0">[</tspan></text></g><g transform="matrix(.35278 0 0 -.35278 -56.929 445.69)" fill="#24292e" font-size="10.998px"><text transform="matrix(1 0 0 -1 221.81 1045.6)" font-family="'Segoe UI'"><tspan x="0 5.8839302 11.580894 16.672968" y="0">Text</tspan></text><text transform="matrix(1 0 0 -1 210.81 1045.6)" font-family="'Segoe UI Symbol'"><tspan x="0 31.278313" y="0">⏴⏵</tspan></text></g><g transform="matrix(.35278 0 0 -.35278 -56.929 445.69)"><text transform="matrix(1 0 0 -1 200.89 1028.7)" fill="#24292e" font-family="FreeMono" font-size="10.998px"><tspan x="0" y="0">⁜</tspan></text></g><g transform="matrix(.35278 0 0 -.35278 -56.929 445.69)"><text transform="matrix(1 0 0 -1 207.61 1028.7)" fill="#24292e" font-family="'Segoe UI'" font-size="10.998px"><tspan x="0" y="0">{</tspan></text></g><g transform="matrix(.35278 0 0 -.35278 -56.929 445.69)" fill="#24292e" font-size="10.998px"><text transform="matrix(1 0 0 -1 221.81 1028.7)" font-family="'Segoe UI'"><tspan x="0 5.8839302 11.580894 16.672968" y="0">Text</tspan></text><text transform="matrix(1 0 0 -1 210.81 1028.7)" font-family="'Segoe UI Symbol'"><tspan x="0 31.278313" y="0">⏴⏵</tspan></text></g><g transform="matrix(.35278 0 0 -.35278 -56.929 445.69)"><text transform="matrix(1 0 0 -1 200.89 1011.7)" fill="#24292e" font-family="FreeMono" font-size="10.998px"><tspan x="0" y="0">⁜</tspan></text></g><g transform="matrix(.35278 0 0 -.35278 -56.929 445.69)"><text transform="matrix(1 0 0 -1 207.61 1011.7)" fill="#000000" font-family="OpenSymbol" font-size="10.998px"><tspan x="0" y="0">⟨</tspan></text></g><g transform="matrix(.35278 0 0 -.35278 -56.929 445.69)"><text transform="matrix(1 0 0 -1 211.29 1011.7)" fill="#24292e" font-family="'Segoe UI Symbol'" font-size="10.998px"><tspan x="0" y="0">⏴</tspan></text></g><g transform="matrix(.35278 0 0 -.35278 -56.929 445.69)" fill="#24292e" font-size="10.998px"><text transform="matrix(1 0 0 -1 222.29 1011.7)" font-family="'Segoe UI'"><tspan x="0 5.7849479 11.569896 16.573986" y="0">Text</tspan></text><text transform="matrix(1 0 0 -1 242.59 1011.7)" font-family="'Segoe UI Symbol'"><tspan x="0" y="0">⏵</tspan></text></g><g transform="matrix(.35278 0 0 -.35278 -56.929 445.69)"><text transform="matrix(1 0 0 -1 200.89 994.71)" fill="#24292e" font-family="FreeMono" font-size="10.998px"><tspan x="0" y="0">⁜</tspan></text></g><g transform="matrix(.35278 0 0 -.35278 -56.929 445.69)"><text transform="matrix(1 0 0 -1 207.61 994.71)" fill="#000000" font-family="OpenSymbol" font-size="10.998px"><tspan x="0" y="0">⌈</tspan></text></g><g transform="matrix(.35278 0 0 -.35278 -56.929 445.69)"><text transform="matrix(1 0 0 -1 210.61 994.71)" fill="#24292e" font-family="'Segoe UI Symbol'" font-size="10.998px"><tspan x="0" y="0">⏴</tspan></text></g><g transform="matrix(.35278 0 0 -.35278 -56.929 445.69)" fill="#24292e" font-size="10.998px"><text transform="matrix(1 0 0 -1 221.61 994.71)" font-family="'Segoe UI'"><tspan x="0 5.8839302 11.580894 16.672968" y="0">Text</tspan></text><text transform="matrix(1 0 0 -1 241.91 994.71)" font-family="'Segoe UI Symbol'"><tspan x="0" y="0">⏵</tspan></text></g><g transform="matrix(.35278 0 0 -.35278 -56.929 445.69)"><text transform="matrix(1 0 0 -1 200.89 977.7)" fill="#24292e" font-family="FreeMono" font-size="10.998px"><tspan x="0" y="0">⁜</tspan></text></g><g transform="matrix(.35278 0 0 -.35278 -56.929 445.69)"><text transform="matrix(1 0 0 -1 207.61 977.7)" fill="#000000" font-family="OpenSymbol" font-size="10.998px"><tspan x="0" y="0">⌊</tspan></text></g><g transform="matrix(.35278 0 0 -.35278 -56.929 445.69)"><text transform="matrix(1 0 0 -1 210.61 977.7)" fill="#24292e" font-family="'Segoe UI Symbol'" font-size="10.998px"><tspan x="0" y="0">⏴</tspan></text></g><g transform="matrix(.35278 0 0 -.35278 -56.929 445.69)" fill="#24292e" font-size="10.998px"><text transform="matrix(1 0 0 -1 221.61 977.7)" font-family="'Segoe UI'"><tspan x="0 5.8839302 11.580894 16.672968" y="0">Text</tspan></text><text transform="matrix(1 0 0 -1 241.91 977.7)" font-family="'Segoe UI Symbol'"><tspan x="0" y="0">⏵</tspan></text></g><g transform="matrix(.35278 0 0 -.35278 -56.929 445.69)"><text transform="matrix(1 0 0 -1 200.89 960.69)" fill="#24292e" font-family="FreeMono" font-size="10.998px"><tspan x="0" y="0">⁜</tspan></text></g><g transform="matrix(.35278 0 0 -.35278 -56.929 445.69)"><text transform="matrix(1 0 0 -1 207.61 960.69)" fill="#000000" font-family="FreeMono" font-size="10.998px"><tspan x="0" y="0">⟪</tspan></text></g><g transform="matrix(.35278 0 0 -.35278 -56.929 445.69)"><text transform="matrix(1 0 0 -1 214.21 960.69)" fill="#24292e" font-family="'Segoe UI Symbol'" font-size="10.998px"><tspan x="0" y="0">⏴</tspan></text></g><g transform="matrix(.35278 0 0 -.35278 -56.929 445.69)" fill="#24292e" font-size="10.998px"><text transform="matrix(1 0 0 -1 225.21 960.69)" font-family="'Segoe UI'"><tspan x="0 5.7849479 11.481912 16.573986" y="0">Text</tspan></text><text transform="matrix(1 0 0 -1 245.51 960.69)" font-family="'Segoe UI Symbol'"><tspan x="0" y="0">⏵</tspan></text></g><g transform="matrix(.35278 0 0 -.35278 -56.929 445.69)"><text transform="matrix(1 0 0 -1 200.89 943.8)" fill="#24292e" font-family="FreeMono" font-size="10.998px"><tspan x="0" y="0">⁜</tspan></text></g><g transform="matrix(.35278 0 0 -.35278 -56.929 445.69)"><text transform="matrix(1 0 0 -1 207.61 943.8)" fill="#000000" font-family="OpenSymbol" font-size="10.998px"><tspan x="0" y="0">⟦</tspan></text></g><g transform="matrix(.35278 0 0 -.35278 -56.929 445.69)"><text transform="matrix(1 0 0 -1 211.69 943.8)" fill="#24292e" font-family="'Segoe UI Symbol'" font-size="10.998px"><tspan x="0" y="0">⏴</tspan></text></g><g transform="matrix(.35278 0 0 -.35278 -56.929 445.69)" fill="#24292e" font-size="10.998px"><text transform="matrix(1 0 0 -1 222.69 943.8)" font-family="'Segoe UI'"><tspan x="0 5.7849479 11.569896 16.573986" y="0">Text</tspan></text><text transform="matrix(1 0 0 -1 243.01 943.8)" font-family="'Segoe UI Symbol'"><tspan x="0" y="0">⏵</tspan></text></g><g transform="matrix(.35278 0 0 -.35278 -56.929 445.69)"><text transform="matrix(1 0 0 -1 200.89 926.79)" fill="#24292e" font-family="FreeMono" font-size="10.998px"><tspan x="0" y="0">⁜</tspan></text></g><g transform="matrix(.35278 0 0 -.35278 -56.929 445.69)"><text transform="matrix(1 0 0 -1 207.61 926.79)" fill="#24292e" font-family="'Segoe UI'" font-size="10.998px"><tspan x="0" y="0">|</tspan></text></g><g transform="matrix(.35278 0 0 -.35278 -56.929 445.69)" fill="#24292e" font-size="10.998px"><text transform="matrix(1 0 0 -1 221.19 926.79)" font-family="'Segoe UI'"><tspan x="0 5.7849479 11.569896 16.573986" y="0">Text</tspan></text><text transform="matrix(1 0 0 -1 210.19 926.79)" font-family="'Segoe UI Symbol'"><tspan x="0 31.278313" y="0">⏴⏵</tspan></text></g><g transform="matrix(.35278 0 0 -.35278 -56.929 445.69)"><text transform="matrix(1 0 0 -1 200.89 909.81)" fill="#24292e" font-family="FreeMono" font-size="10.998px"><tspan x="0" y="0">⁜</tspan></text></g><g transform="matrix(.35278 0 0 -.35278 -56.929 445.69)"><text transform="matrix(1 0 0 -1 207.61 909.81)" fill="#000000" font-family="'Segoe UI'" font-size="10.998px"><tspan x="0" y="0">‖</tspan></text></g><g transform="matrix(.35278 0 0 -.35278 -56.929 445.69)"><text transform="matrix(1 0 0 -1 212.51 909.81)" fill="#24292e" font-family="'Segoe UI Symbol'" font-size="10.998px"><tspan x="0" y="0">⏴</tspan></text></g><g transform="matrix(.35278 0 0 -.35278 -56.929 445.69)" fill="#24292e" font-size="10.998px"><text transform="matrix(1 0 0 -1 223.51 909.81)" font-family="'Segoe UI'"><tspan x="0 5.8839302 11.580894 16.672968" y="0">Text</tspan></text><text transform="matrix(1 0 0 -1 243.81 909.81)" font-family="'Segoe UI Symbol'"><tspan x="0" y="0">⏵</tspan></text></g><g transform="matrix(.35278 0 0 -.35278 -56.929 445.69)"><text transform="matrix(1 0 0 -1 200.89 892.8)" fill="#24292e" font-family="FreeMono" font-size="10.998px"><tspan x="0" y="0">⁜</tspan></text></g><g transform="matrix(.35278 0 0 -.35278 -56.929 445.69)"><text transform="matrix(1 0 0 -1 207.61 892.8)" fill="#000000" font-family="FreeMono" font-size="10.998px"><tspan x="0" y="0">┊</tspan></text></g><g transform="matrix(.35278 0 0 -.35278 -56.929 445.69)"><text transform="matrix(1 0 0 -1 214.21 892.8)" fill="#000000" font-family="'Segoe UI'" font-size="10.998px"><tspan x="0 6.7967639 11.899836 20.291309 26.087255" y="0">CLOSE</tspan></text></g><g transform="matrix(.35278 0 0 -.35278 -56.929 445.69)" fill="#24292e" font-size="10.998px"><text transform="matrix(1 0 0 -1 256.79 892.8)" font-family="'Segoe UI'"><tspan x="0 5.8839302 11.580894 16.672968" y="0">Text</tspan></text><text transform="matrix(1 0 0 -1 245.79 892.8)" font-family="'Segoe UI Symbol'"><tspan x="0 31.278313" y="0">⏴⏵</tspan></text></g><g transform="matrix(.35278 0 0 -.35278 -56.929 445.69)"><text transform="matrix(1 0 0 -1 200.89 875.79)" fill="#24292e" font-family="FreeMono" font-size="10.998px"><tspan x="0" y="0">⁜</tspan></text></g><g transform="matrix(.35278 0 0 -.35278 -56.929 445.69)"><text transform="matrix(1 0 0 -1 207.61 875.79)" fill="#000000" font-family="'Segoe UI'" font-size="10.998px"><tspan x="0" y="0">∫</tspan></text></g><g transform="matrix(.35278 0 0 -.35278 -56.929 445.69)"><text transform="matrix(1 0 0 -1 213.39 875.79)" fill="#000000" font-family="'Segoe UI'" font-size="10.998px"><tspan x="0" y="0">(</tspan></text></g><g transform="matrix(.35278 0 0 -.35278 -56.929 445.69)" fill="#24292e" font-size="10.998px"><text transform="matrix(1 0 0 -1 227.71 875.79)" font-family="'Segoe UI'"><tspan x="0 5.7959461 11.998818 18.487638 23.271769 28.275858 32.070168 34.753681 41.2425 55.924831 58.927284 73.213684 79.097618 85.201508 91.690323 97.475273 101.26958 105.95473 111.04681 114.84112 117.52463 124.01345 138.69579 141.99518" y="0">Subscript (Superscript)?</tspan></text><text transform="matrix(1 0 0 -1 216.71 875.79)" font-family="'Segoe UI Symbol'"><tspan x="0 55.97982 73.268677 138.84975" y="0">⏴⏵⏴⏵</tspan></text></g><g transform="matrix(.35278 0 0 -.35278 -56.929 445.69)"><text transform="matrix(1 0 0 -1 374.8 875.79)" fill="#000000" font-family="'Segoe UI'" font-size="10.998px"><tspan x="0 3.2994001" y="0">)?</tspan></text></g><g transform="matrix(.35278 0 0 -.35278 -56.929 445.69)"><text transform="matrix(1 0 0 -1 200.89 858.9)" fill="#24292e" font-family="FreeMono" font-size="10.998px"><tspan x="0" y="0">⁜</tspan></text></g><g transform="matrix(.35278 0 0 -.35278 -56.929 445.69)"><text transform="matrix(1 0 0 -1 207.61 858.9)" fill="#000000" font-family="OpenSymbol" font-size="10.998px"><tspan x="0" y="0">∬</tspan></text></g><g transform="matrix(.35278 0 0 -.35278 -56.929 445.69)"><text transform="matrix(1 0 0 -1 216.99 858.9)" fill="#000000" font-family="'Segoe UI'" font-size="10.998px"><tspan x="0" y="0">(</tspan></text></g><g transform="matrix(.35278 0 0 -.35278 -56.929 445.69)" fill="#24292e" font-size="10.998px"><text transform="matrix(1 0 0 -1 231.31 858.9)" font-family="'Segoe UI'"><tspan x="0 5.7959461 11.899836 18.487638 23.172787 28.176876 31.971186 34.764679 41.253498" y="0">Subscript</tspan></text><text transform="matrix(1 0 0 -1 220.31 858.9)" font-family="'Segoe UI Symbol'"><tspan x="0 55.97982" y="0">⏴⏵</tspan></text></g><g transform="matrix(.35278 0 0 -.35278 -56.929 445.69)"><text transform="matrix(1 0 0 -1 287.29 858.9)" fill="#000000" font-family="'Segoe UI'" font-size="10.998px"><tspan x="0 3.2994001" y="0">)?</tspan></text></g><g transform="matrix(.35278 0 0 -.35278 -56.929 445.69)"><text transform="matrix(1 0 0 -1 200.89 841.89)" fill="#24292e" font-family="FreeMono" font-size="10.998px"><tspan x="0" y="0">⁜</tspan></text></g><g transform="matrix(.35278 0 0 -.35278 -56.929 445.69)"><text transform="matrix(1 0 0 -1 207.61 841.89)" fill="#000000" font-family="OpenSymbol" font-size="10.998px"><tspan x="0" y="0">∭</tspan></text></g><g transform="matrix(.35278 0 0 -.35278 -56.929 445.69)"><text transform="matrix(1,0,0,-1,220.11,841.89)" fill="#000000" font-family="'Segoe UI'" font-size="10.998px"><tspan x="0" y="0">(</tspan></text></g><g transform="matrix(.35278 0 0 -.35278 -56.929 445.69)" fill="#24292e" font-size="10.998px"><text transform="matrix(1 0 0 -1 234.31 841.89)" font-family="'Segoe UI'"><tspan x="0 5.8839302 11.98782 18.575623 23.260771 28.26486 32.05917 34.742683 41.231503" y="0">Subscript</tspan></text><text transform="matrix(1 0 0 -1 223.31 841.89)" font-family="'Segoe UI Symbol'"><tspan x="0 56.0788" y="0">⏴⏵</tspan></text></g><g transform="matrix(.35278 0 0 -.35278 -56.929 445.69)"><text transform="matrix(1 0 0 -1 290.41 841.89)" fill="#000000" font-family="'Segoe UI'" font-size="10.998px"><tspan x="0 3.200418" y="0">)?</tspan></text></g><g transform="matrix(.35278 0 0 -.35278 -56.929 445.69)"><text transform="matrix(1 0 0 -1 200.89 824.91)" fill="#24292e" font-family="FreeMono" font-size="10.998px"><tspan x="0" y="0">⁜</tspan></text></g><g transform="matrix(.35278 0 0 -.35278 -56.929 445.69)"><text transform="matrix(1 0 0 -1 207.61 824.91)" fill="#000000" font-family="OpenSymbol" font-size="10.998px"><tspan x="0" y="0">∮</tspan></text></g><g transform="matrix(.35278 0 0 -.35278 -56.929 445.69)"><text transform="matrix(1 0 0 -1 214.41 824.91)" fill="#000000" font-family="'Segoe UI'" font-size="10.998px"><tspan x="0" y="0">(</tspan></text></g><g transform="matrix(.35278 0 0 -.35278 -56.929 445.69)" fill="#24292e" font-size="10.998px"><text transform="matrix(1 0 0 -1 228.61 824.91)" font-family="'Segoe UI'"><tspan x="0 5.8839302 11.98782 18.575623 23.260771 28.26486 32.05917 34.852661 41.253498 56.034809 58.938282 73.224686 79.108612 85.212502 91.800308 97.497269 101.29158 105.97673 111.0688 114.86311 117.54662 124.13442 138.71777 142.10516" y="0">Subscript (Superscript)?</tspan></text><text transform="matrix(1 0 0 -1 217.59 824.91)" font-family="'Segoe UI Symbol'"><tspan x="0 56.0788 73.268677 138.84975" y="0">⏴⏵⏴⏵</tspan></text></g><g transform="matrix(.35278 0 0 -.35278 -56.929 445.69)"><text transform="matrix(1 0 0 -1 375.7 824.91)" fill="#000000" font-family="'Segoe UI'" font-size="10.998px"><tspan x="0 3.2994001" y="0">)?</tspan></text></g><g transform="matrix(.35278 0 0 -.35278 -56.929 445.69)"><text transform="matrix(1 0 0 -1 200.89 807.9)" fill="#24292e" font-family="FreeMono" font-size="10.998px"><tspan x="0" y="0">⁜</tspan></text></g><g transform="matrix(.35278 0 0 -.35278 -56.929 445.69)"><text transform="matrix(1 0 0 -1 207.61 807.9)" fill="#000000" font-family="OpenSymbol" font-size="10.998px"><tspan x="0" y="0">∯</tspan></text></g><g transform="matrix(.35278 0 0 -.35278 -56.929 445.69)"><text transform="matrix(1 0 0 -1 217.39 807.9)" fill="#000000" font-family="'Segoe UI'" font-size="10.998px"><tspan x="0" y="0">(</tspan></text></g><g transform="matrix(.35278 0 0 -.35278 -56.929 445.69)" fill="#24292e" font-size="10.998px"><text transform="matrix(1 0 0 -1 231.59 807.9)" font-family="'Segoe UI'"><tspan x="0 5.8839302 11.98782 18.575623 23.260771 28.26486 32.05917 34.852661 41.253498" y="0">Subscript</tspan></text><text transform="matrix(1 0 0 -1 220.59 807.9)" font-family="'Segoe UI Symbol'"><tspan x="0 56.0788" y="0">⏴⏵</tspan></text></g><g transform="matrix(.35278 0 0 -.35278 -56.929 445.69)"><text transform="matrix(1 0 0 -1 287.69 807.9)" fill="#000000" font-family="'Segoe UI'" font-size="10.998px"><tspan x="0 3.200418" y="0">)?</tspan></text></g><g transform="matrix(.35278 0 0 -.35278 -56.929 445.69)"><text transform="matrix(1 0 0 -1 200.89 791.01)" fill="#24292e" font-family="FreeMono" font-size="10.998px"><tspan x="0" y="0">⁜</tspan></text></g><g transform="matrix(.35278 0 0 -.35278 -56.929 445.69)"><text transform="matrix(1 0 0 -1 207.61 791.01)" fill="#000000" font-family="OpenSymbol" font-size="10.998px"><tspan x="0" y="0">∰</tspan></text></g><g transform="matrix(.35278 0 0 -.35278 -56.929 445.69)"><text transform="matrix(1 0 0 -1 220.39 791.01)" fill="#000000" font-family="'Segoe UI'" font-size="10.998px"><tspan x="0" y="0">(</tspan></text></g><g transform="matrix(.35278 0 0 -.35278 -56.929 445.69)" fill="#24292e" font-size="10.998px"><text transform="matrix(1 0 0 -1 234.71 791.01)" font-family="'Segoe UI'"><tspan x="0 5.7959461 11.899836 18.487638 23.172787 28.176876 31.971186 34.764679 41.253498" y="0">Subscript</tspan></text><text transform="matrix(1 0 0 -1 223.71 791.01)" font-family="'Segoe UI Symbol'"><tspan x="0 55.97982" y="0">⏴⏵</tspan></text></g><g transform="matrix(.35278 0 0 -.35278 -56.929 445.69)"><text transform="matrix(1 0 0 -1 290.69 791.01)" fill="#000000" font-family="'Segoe UI'" font-size="10.998px"><tspan x="0 3.2994001" y="0">)?</tspan></text></g><g transform="matrix(.35278 0 0 -.35278 -56.929 445.69)"><text transform="matrix(1 0 0 -1 200.89 746.39)" fill="#24292e" font-family="FreeMono" font-size="10.998px"><tspan x="0" y="0">⁜</tspan></text></g><g transform="matrix(.35278 0 0 -.35278 -56.929 445.69)"><text transform="matrix(1 0 0 -1 207.61 746.39)" fill="#000000" font-family="FreeMono" font-size="10.998px"><tspan x="0" y="0">∛</tspan></text></g><g transform="matrix(.35278 0 0 -.35278 -56.929 445.69)"><text transform="matrix(1 0 0 -1 214.21 746.39)" fill="#24292e" font-family="'Segoe UI Symbol'" font-size="10.998px"><tspan x="0" y="0">⏴</tspan></text></g><g transform="matrix(.35278 0 0 -.35278 -56.929 445.69)" fill="#24292e" font-size="10.998px"><text transform="matrix(1 0 0 -1 225.21 746.39)" font-family="'Segoe UI'"><tspan x="0 6.2028718 12.691692 19.092527 46.378567 52.262497 57.354568 61.14888 63.744408 70.332207" y="0">BodyScript</tspan></text><text transform="matrix(1 0 0 -1 249.59 746.39)" font-family="'Segoe UI Symbol'"><tspan x="0 10.998 49.677967" y="0">⏵⏴⏵</tspan></text></g><g transform="matrix(.35278 0 0 -.35278 -56.929 445.69)"><text transform="matrix(1 0 0 -1 200.89 701.89)" fill="#24292e" font-family="FreeMono" font-size="10.998px"><tspan x="0" y="0">⁜</tspan></text></g><g transform="matrix(.35278 0 0 -.35278 -56.929 445.69)"><text transform="matrix(1 0 0 -1 207.61 701.89)" fill="#000000" font-family="'Segoe UI'" font-size="10.998px"><tspan x="0" y="0">Δ</tspan></text></g><g transform="matrix(.35278 0 0 -.35278 -56.929 445.69)" fill="#24292e" font-size="10.998px"><text transform="matrix(1 0 0 -1 225.61 701.89)" font-family="'Segoe UI'"><tspan x="0 5.7959461 11.998818 18.487638 23.271769 28.275858 32.070168 34.753681 41.2425 66.922829 72.718773 78.921646 85.410469 91.195419 94.989723 99.674873 104.76694 108.56126 111.24477 117.73359" y="0">SubscriptSuperscript</tspan></text><text transform="matrix(1 0 0 -1 214.61 701.89)" font-family="'Segoe UI Symbol'"><tspan x="0 56.0788 67.076805 132.5589" y="0">⏴⏵⏴⏵</tspan></text></g><g transform="matrix(.35278 0 0 -.35278 -56.929 445.69)"><text transform="matrix(1 0 0 -1 200.89 671.1)" fill="#24292e" font-family="FreeMono" font-size="10.998px"><tspan x="0" y="0">⁜</tspan></text></g><g transform="matrix(.35278 0 0 -.35278 -56.929 445.69)"><text transform="matrix(1 0 0 -1 207.61 671.1)" fill="#000000" font-family="'Liberation Sans'" font-size="10.998px"><tspan x="0" y="0">↑</tspan></text></g><g transform="matrix(.35278 0 0 -.35278 -56.929 445.69)"><text transform="matrix(1 0 0 -1 213.11 671.1)" fill="#24292e" font-family="'Segoe UI Symbol'" font-size="10.998px"><tspan x="0" y="0">⏴</tspan></text></g><g transform="matrix(.35278 0 0 -.35278 -56.929 445.69)" fill="#24292e" font-size="10.998px"><text transform="matrix(1 0 0 -1 224.11 671.1)" font-family="'Segoe UI'"><tspan x="0 7.5006361 13.791492 20.192327 26.076258 29.870567 34.555717 39.647789 43.442101 46.12561 52.526447" y="0">Underscript</tspan></text><text transform="matrix(1 0 0 -1 280.49 671.1)" font-family="'Segoe UI Symbol'"><tspan x="0" y="0">⏵</tspan></text></g><g transform="matrix(.35278 0 0 -.35278 -56.929 445.69)"><text transform="matrix(1 0 0 -1 200.89 654.21)" fill="#24292e" font-family="FreeMono" font-size="10.998px"><tspan x="0" y="0">⁜</tspan></text></g><g transform="matrix(.35278 0 0 -.35278 -56.929 445.69)"><text transform="matrix(1 0 0 -1 207.61 654.21)" fill="#000000" font-family="'Liberation Sans'" font-size="10.998px"><tspan x="0" y="0">↓</tspan></text></g><g transform="matrix(.35278 0 0 -.35278 -56.929 445.69)"><text transform="matrix(1 0 0 -1 213.11 654.21)" fill="#24292e" font-family="'Segoe UI Symbol'" font-size="10.998px"><tspan x="0" y="0">⏴</tspan></text></g><g transform="matrix(.35278 0 0 -.35278 -56.929 445.69)" fill="#24292e" font-size="10.998px"><text transform="matrix(1 0 0 -1 224.11 654.21)" font-family="'Segoe UI'"><tspan x="0 7.5006361 13.791492 20.192327 26.076258 29.870567 34.555717 39.647789 43.442101 46.12561 52.526447" y="0">Underscript</tspan></text><text transform="matrix(1 0 0 -1 280.49 654.21)" font-family="'Segoe UI Symbol'"><tspan x="0" y="0">⏵</tspan></text></g><g transform="matrix(.35278 0 0 -.35278 -56.929 445.69)"><text transform="matrix(1 0 0 -1 200.89 637.2)" fill="#24292e" font-family="FreeMono" font-size="10.998px"><tspan x="0" y="0">⁜</tspan></text></g><g transform="matrix(.35278 0 0 -.35278 -56.929 445.69)"><text transform="matrix(1 0 0 -1 207.61 637.2)" fill="#000000" font-family="'Segoe UI'" font-size="10.998px"><tspan x="0" y="0">↗</tspan></text></g><g transform="matrix(.35278 0 0 -.35278 -56.929 445.69)"><text transform="matrix(1 0 0 -1 215.69 637.2)" fill="#24292e" font-family="'Segoe UI Symbol'" font-size="10.998px"><tspan x="0" y="0">⏴</tspan></text></g><g transform="matrix(.35278 0 0 -.35278 -56.929 445.69)" fill="#24292e" font-size="10.998px"><text transform="matrix(1 0 0 -1 226.69 637.2)" font-family="'Segoe UI'"><tspan x="0 7.5886202 13.791492 20.280312 26.06526 29.85957 34.54472 39.636791 43.431103 46.114613 52.603436" y="0">Underscript</tspan></text><text transform="matrix(1 0 0 -1 283.1 637.2)" font-family="'Segoe UI Symbol'"><tspan x="0" y="0">⏵</tspan></text></g><g transform="matrix(.35278 0 0 -.35278 -56.929 445.69)"><text transform="matrix(1 0 0 -1 200.89 620.19)" fill="#24292e" font-family="FreeMono" font-size="10.998px"><tspan x="0" y="0">⁜</tspan></text></g><g transform="matrix(.35278 0 0 -.35278 -56.929 445.69)"><text transform="matrix(1 0 0 -1 207.61 620.19)" fill="#000000" font-family="OpenSymbol" font-size="10.998px"><tspan x="0" y="0">↘</tspan></text></g><g transform="matrix(.35278 0 0 -.35278 -56.929 445.69)"><text transform="matrix(1 0 0 -1 213.99 620.19)" fill="#24292e" font-family="'Segoe UI Symbol'" font-size="10.998px"><tspan x="0" y="0">⏴</tspan></text></g><g transform="matrix(.35278 0 0 -.35278 -56.929 445.69)" fill="#24292e" font-size="10.998px"><text transform="matrix(1 0 0 -1 225.01 620.19)" font-family="'Segoe UI'"><tspan x="0 7.5886202 13.791492 20.280312 26.06526 29.85957 34.6437 39.735775 43.530083 46.12561 52.614433" y="0">Underscript</tspan></text><text transform="matrix(1 0 0 -1 281.51 620.19)" font-family="'Segoe UI Symbol'"><tspan x="0" y="0">⏵</tspan></text></g></g></g></svg>
